<?xml version="1.0" standalone="no"?>
<!DOCTYPE svg PUBLIC "-//W3C//DTD SVG 20010904//EN"
 "http://www.w3.org/TR/2001/REC-SVG-20010904/DTD/svg10.dtd">
<svg version="1.0" xmlns="http://www.w3.org/2000/svg"
 width="1024.000000pt" height="1024.000000pt" viewBox="0 0 1024.000000 1024.000000"
 preserveAspectRatio="xMidYMid meet">

<g transform="translate(0.000000,1024.000000) scale(0.100000,-0.100000)"
fill="#e62b2e" stroke="none">
<path d="M4780 9441 c0 -5 22 -36 48 -68 60 -72 101 -133 134 -198 38 -75 45
-94 63 -165 39 -151 46 -225 32 -355 -9 -81 -33 -184 -58 -242 -5 -13 -13 -33
-18 -45 -94 -244 -318 -509 -701 -829 -141 -118 -164 -138 -230 -194 -26 -22
-103 -85 -170 -140 -342 -277 -651 -586 -825 -825 -150 -206 -240 -365 -335
-595 -5 -11 -14 -38 -21 -60 -6 -22 -15 -48 -20 -57 -5 -10 -9 -29 -9 -42 0
-14 -4 -27 -9 -30 -5 -3 -11 -23 -14 -43 -11 -72 -18 -108 -27 -128 -16 -36
-22 -137 -22 -390 0 -250 5 -342 22 -380 9 -20 16 -56 27 -128 3 -20 9 -40 14
-43 5 -3 9 -16 9 -29 0 -13 5 -27 10 -30 6 -3 10 -15 10 -26 0 -10 4 -27 9
-37 5 -9 15 -37 22 -62 14 -50 55 -145 99 -231 108 -209 283 -456 455 -640
103 -110 212 -256 279 -373 26 -44 30 -47 40 -30 14 25 21 2881 7 2959 -14 74
-48 142 -82 162 -41 24 -36 32 12 22 54 -13 88 -31 120 -66 76 -81 85 -143 99
-653 8 -292 11 -318 59 -450 98 -268 294 -469 610 -625 157 -78 478 -210 716
-295 65 -23 280 -113 373 -156 41 -19 75 -34 77 -34 2 0 43 -23 92 -51 192
-111 312 -225 386 -371 63 -122 69 -148 64 -268 -5 -129 -8 -142 -51 -240 -22
-52 -86 -139 -134 -181 -46 -41 -175 -113 -247 -137 -83 -27 -147 -33 -315
-29 -182 5 -258 13 -275 28 -5 5 -18 9 -30 9 -11 0 -52 12 -90 26 -39 14 -79
29 -90 32 -41 12 -226 132 -310 202 -257 215 -418 490 -607 1040 -37 105 -58
155 -68 155 -13 0 -16 -86 -21 -625 -3 -344 -9 -638 -13 -655 -15 -58 -70
-156 -119 -213 l-50 -57 134 -6 c254 -12 487 -63 676 -149 175 -80 338 -226
411 -370 23 -47 42 -92 42 -101 0 -8 4 -19 9 -25 22 -22 40 -322 22 -359 -6
-11 -12 -45 -15 -75 -2 -30 -7 -71 -11 -90 l-7 -35 28 34 c422 518 601 695
955 946 85 59 206 145 269 189 150 106 310 264 387 382 178 272 230 641 134
942 -50 154 -171 331 -297 432 -68 55 -84 66 -219 152 -77 50 -227 127 -308
159 -64 25 -116 48 -139 60 -10 5 -25 9 -33 9 -8 0 -23 4 -33 9 -9 5 -30 14
-47 21 -16 7 -46 21 -66 31 -20 11 -44 19 -53 19 -9 0 -24 4 -34 9 -23 12 -60
26 -102 41 -19 7 -44 16 -55 20 -108 44 -183 70 -197 70 -9 0 -20 4 -23 10 -3
6 -13 10 -21 10 -8 0 -62 23 -120 50 -58 28 -111 50 -119 50 -8 0 -15 5 -15
10 0 6 -4 10 -10 10 -5 0 -44 24 -86 52 -102 70 -215 185 -264 267 -75 127
-90 202 -90 470 -1 237 0 241 72 308 143 131 543 137 793 11 136 -69 312 -220
391 -337 13 -20 36 -54 51 -76 32 -47 111 -201 136 -265 10 -25 22 -54 27 -65
4 -11 13 -40 20 -65 6 -25 16 -53 21 -62 5 -10 9 -33 9 -51 0 -18 4 -37 9 -42
9 -9 14 -46 27 -175 9 -93 23 -113 106 -144 134 -52 412 -193 520 -265 59 -39
112 -71 119 -71 17 0 5 439 -15 550 -65 345 -173 586 -367 815 -105 124 -295
269 -484 370 -81 44 -297 169 -365 213 -197 125 -327 281 -391 467 -22 65 -24
85 -24 265 0 172 3 205 23 279 24 89 82 213 133 288 39 56 148 173 202 215 34
28 39 29 33 11 -4 -12 -2 -24 4 -28 19 -12 8 -100 -21 -157 -13 -25 -11 -375
1 -383 6 -3 10 -22 10 -41 0 -19 4 -42 9 -52 5 -9 15 -37 21 -62 31 -115 114
-245 234 -365 125 -125 284 -227 484 -312 34 -14 43 -4 16 18 -24 20 -127 149
-151 189 -178 300 -229 543 -198 947 17 223 13 358 -16 509 -46 243 -145 455
-304 653 -62 77 -207 219 -283 276 -29 22 -68 52 -85 66 -43 34 -130 86 -303
180 -73 40 -94 46 -94 30z"/>
</g>
</svg>
